<svg width="123" height="123" viewBox="0 0 123 123" fill="none" xmlns="http://www.w3.org/2000/svg">
<path fill-rule="evenodd" clip-rule="evenodd" d="M61.44 0C95.372 0 122.88 27.508 122.88 61.44C122.88 95.372 95.372 122.879 61.44 122.879C27.507 122.88 0 95.372 0 61.44C0 27.508 27.507 0 61.44 0ZM34.258 63.075C35.082 58.295 40.538 55.635 44.842 58.224C45.232 58.457 45.605 58.734 45.952 59.051L45.986 59.083C47.918 60.935 50.082 62.861 52.228 64.771L54.069 66.423L75.909 43.513C77.213 42.147 78.168 41.263 80.125 40.824C86.826 39.346 91.537 47.536 86.788 52.543L59.565 81.108C57.001 83.843 52.418 84.093 49.664 81.481C48.083 80.015 46.367 78.523 44.63 77.014C41.623 74.401 38.553 71.734 36.053 69.095C34.551 67.595 33.903 65.139 34.258 63.075Z" fill="#00B749"/>
</svg>
