<svg width="512" height="512" viewBox="0 0 512 512" fill="none" xmlns="http://www.w3.org/2000/svg">
<path fill-rule="evenodd" clip-rule="evenodd" d="M256 0C326.69 0 390.7 28.66 437.02 74.98C483.34 121.31 512 185.31 512 256C512 326.69 483.34 390.7 437.02 437.02C390.7 483.34 326.69 512 256 512C185.31 512 121.31 483.34 74.98 437.02C28.66 390.7 0 326.69 0 256C0 185.31 28.66 121.31 74.98 74.98C121.31 28.66 185.31 0 256 0ZM234.09 302.69V300.62C234.25 286.9 235.6 276.03 238.24 267.95C240.83 259.87 244.56 253.3 249.42 248.32C254.29 243.3 260.14 238.74 266.98 234.6C271.38 231.8 275.37 228.7 278.89 225.23C282.41 221.81 285.21 217.82 287.27 213.32C289.34 208.86 290.38 203.9 290.38 198.41C290.38 191.88 288.83 186.23 285.72 181.42C282.67 176.65 278.53 172.98 273.45 170.34C268.32 167.75 262.63 166.45 256.36 166.45C250.71 166.45 245.33 167.6 240.15 169.98C235.03 172.31 230.73 175.98 227.36 180.95C224 185.93 222.03 192.3 221.51 200.06H187.95C188.48 186.85 191.84 175.67 198 166.51C204.21 157.35 212.4 150.4 222.55 145.69C232.75 140.98 244.04 138.65 256.36 138.65C269.93 138.65 281.74 141.13 291.88 146.21C302.03 151.23 309.96 158.27 315.6 167.29C321.19 176.29 324.04 186.76 324.04 198.77C324.04 207 322.75 214.41 320.16 220.98C317.57 227.56 313.94 233.46 309.18 238.59C304.41 243.77 298.77 248.32 292.15 252.26C285.88 256.2 280.8 260.23 276.97 264.43C273.09 268.62 270.29 273.6 268.53 279.29C266.77 285.03 265.78 292.13 265.63 300.62V302.69H234.09ZM250.77 373.36C244.71 373.36 239.53 371.18 235.18 366.88C230.84 362.59 228.71 357.35 228.71 351.25C228.71 345.24 230.83 340.06 235.18 335.76C239.53 331.46 244.71 329.29 250.77 329.29C256.72 329.29 261.89 331.48 266.25 335.76C270.64 340.07 272.83 345.24 272.83 351.25C272.83 355.29 271.78 359.01 269.77 362.33C267.75 365.68 265.11 368.4 261.8 370.36C258.49 372.32 254.81 373.36 250.77 373.36Z" fill="#FF3636"/>
</svg>
